<svg xmlns="http://www.w3.org/2000/svg" width="48" height="48" fill="none"><path d="M31.63 28.498c0 .797-.163 1.49-.493 2.08-.33.59-.78 1.083-1.352 1.482a6.814 6.814 0 0 1-2.002.884 9.937 9.937 0 0 1-2.418.286H16.37V14.77h10.27c.64 0 1.22.14 1.74.416.52.277.963.64 1.327 1.092.364.433.642.936.832 1.508a4.91 4.91 0 0 1-.365 4.212c-.433.78-1.092 1.37-1.976 1.768 1.057.312 1.89.867 2.495 1.664.624.797.936 1.82.936 3.068zm-4.34-.858c0-.572-.165-1.057-.495-1.456-.33-.4-.745-.598-1.248-.598h-4.914v4.03h4.732c.555 0 1.014-.182 1.378-.546.364-.364.546-.84.546-1.43zm-6.657-9.23v3.822h4.186c.467 0 .883-.156 1.247-.468.364-.312.546-.797.546-1.456 0-.607-.164-1.075-.494-1.404a1.516 1.516 0 0 0-1.145-.494z" fill="#000"/></svg>