<svg xmlns="http://www.w3.org/2000/svg" width="49" height="48" fill="none"><path d="M32.348 28.768c0 .797-.164 1.49-.494 2.08-.33.59-.78 1.083-1.352 1.482a6.814 6.814 0 0 1-2.002.884 9.937 9.937 0 0 1-2.418.286h-8.996V15.04h10.27c.642 0 1.222.14 1.742.416.52.277.962.64 1.326 1.092.364.433.642.936.832 1.508a4.91 4.91 0 0 1-.364 4.212c-.433.78-1.092 1.37-1.976 1.768 1.058.312 1.89.867 2.496 1.664.624.797.936 1.82.936 3.068zm-4.342-.858c0-.572-.164-1.057-.494-1.456-.33-.4-.745-.598-1.248-.598H21.35v4.03h4.732c.555 0 1.014-.182 1.378-.546.364-.364.546-.84.546-1.43zm-6.656-9.23v3.822h4.186c.468 0 .884-.156 1.248-.468.364-.312.546-.797.546-1.456 0-.607-.164-1.075-.494-1.404a1.516 1.516 0 0 0-1.144-.494z" fill="#000"/></svg>