<svg xmlns="http://www.w3.org/2000/svg" width="891.698" height="184.636" viewBox="0 0 235.929 48.852"><g font-weight="400" letter-spacing="0" word-spacing="0" stroke-width=".265"><path fill="#fff" stroke="#000" stroke-width="2.122" stroke-linecap="round" stroke-linejoin="round" d="M58.346 12.225H85.67V39.55H58.346z" aria-label="Easy List . link" style="opacity:1;fill:#ffffff;fill-opacity:1;fill-rule:nonzero;stroke:#000000;stroke-width:2.12236643;stroke-linecap:round;stroke-linejoin:round;stroke-miterlimit:4;stroke-dasharray:none;stroke-dashoffset:0;stroke-opacity:1" font-size="10.583" font-family="Arial Rounded MT Bold"/><g aria-label="EasyList.link" style="line-height:1.25;-inkscape-font-specification:'Raleway ExtraBold, ';font-variant-ligatures:normal;font-variant-caps:normal;font-variant-numeric:normal;text-align:start" font-size="35.278" font-family="Raleway ExtraBold"><path d="M17.604 35.623v5.08H0V15.655h17.286v5.08h-11.5v4.869h9.877v4.692H5.786v5.327zM25.606 41.055q-1.376 0-2.575-.423-1.164-.459-2.011-1.235-.847-.811-1.34-1.87-.494-1.093-.494-2.363 0-1.376.564-2.505.6-1.129 1.658-1.94 1.058-.811 2.505-1.27 1.446-.459 3.21-.459 1.164 0 2.258.212 1.093.176 1.905.564v-.846q0-3.21-3.704-3.21-1.517 0-2.893.529-1.376.494-2.893 1.517l-1.658-3.528q1.835-1.2 3.81-1.8 1.976-.6 4.198-.6 4.198 0 6.491 1.976 2.293 1.976 2.293 5.786v4.763q0 .846.247 1.199.282.317.953.388v4.763q-.741.176-1.34.211-.6.07-1.094.07-1.588 0-2.4-.599-.81-.635-1.022-1.764l-.106-.847q-1.235 1.588-2.964 2.435-1.693.846-3.598.846zm1.658-4.057q.917 0 1.764-.317.882-.318 1.446-.847.812-.635.812-1.34V32.73q-.741-.282-1.623-.424-.847-.176-1.587-.176-1.553 0-2.576.706-.987.705-.987 1.834 0 1.023.776 1.693.776.635 1.975.635zM48.323 41.055q-2.364 0-4.657-.74-2.293-.777-3.88-2.223l2.01-3.457q1.694 1.164 3.281 1.799 1.623.635 3.105.635 1.093 0 1.693-.388.6-.388.6-1.129 0-.74-.776-1.164-.741-.459-2.646-.953-1.87-.529-3.175-1.023-1.27-.494-2.082-1.093-.81-.6-1.164-1.376-.352-.776-.352-1.835 0-1.41.564-2.575.564-1.164 1.552-1.975.988-.812 2.329-1.27 1.375-.46 2.963-.46 2.081 0 3.88.565 1.835.565 3.528 2.046l-2.187 3.387q-1.588-1.093-2.822-1.587-1.235-.494-2.4-.494-.916 0-1.551.388-.635.353-.635 1.164 0 .776.67 1.164.705.388 2.575.847 1.976.529 3.316 1.058 1.376.53 2.223 1.2.846.635 1.235 1.481.388.847.388 2.011 0 2.752-2.047 4.375-2.046 1.622-5.538 1.622z"/><path d="M64.737 43.49c.47.164.905.282 1.305.352.424.07.8.106 1.13.106.681 0 1.21-.235 1.587-.705.376-.47.717-1.318 1.023-2.54l-7.056-18.521h5.82l4.305 13.687L87.219.012 92.159 0 74.792 43.701c-.494 1.529-1.376 2.764-2.646 3.704-1.27.965-2.775 1.447-4.515 1.447-.47 0-.953-.047-1.447-.141a6.97 6.97 0 0 1-1.446-.388z" fill="#26d926"/><path d="M98.841 40.703V15.655h5.786v19.968h12.135v5.08zM119.053 40.703V22.182h5.645v18.52zm0-20.638V14.95h5.645v5.115zM135.864 41.055q-2.363 0-4.657-.74-2.293-.777-3.88-2.223l2.01-3.457q1.694 1.164 3.282 1.799 1.622.635 3.104.635 1.094 0 1.693-.388.6-.388.6-1.129 0-.74-.776-1.164-.74-.459-2.646-.953-1.87-.529-3.175-1.023-1.27-.494-2.081-1.093-.812-.6-1.164-1.376-.353-.776-.353-1.835 0-1.41.564-2.575.565-1.164 1.552-1.975.988-.812 2.329-1.27 1.376-.46 2.963-.46 2.082 0 3.88.565 1.835.565 3.528 2.046l-2.187 3.387q-1.587-1.093-2.822-1.587t-2.399-.494q-.917 0-1.552.388-.635.353-.635 1.164 0 .776.67 1.164.706.388 2.575.847 1.976.529 3.317 1.058 1.375.53 2.222 1.2.847.635 1.235 1.481.388.847.388 2.011 0 2.752-2.046 4.375-2.046 1.622-5.539 1.622zM158.126 39.715q-1.164.494-2.681.917-1.482.423-2.999.423-1.058 0-2.01-.282-.918-.247-1.623-.811-.706-.6-1.13-1.553-.387-.952-.387-2.293V26.45h-2.364v-4.268h2.364V16.29h5.644v5.892h3.775v4.268h-3.775v7.726q0 .917.459 1.34.458.389 1.164.389.635 0 1.305-.212.67-.212 1.164-.459zM163.465 40.703v-5.75h4.622v5.75zM174.482 14.95h5.644v19.156q0 2.116 1.8 2.116.423 0 .917-.106.529-.14.952-.388l.741 4.234q-1.058.494-2.434.776-1.376.282-2.575.282-2.435 0-3.74-1.27-1.305-1.27-1.305-3.669zM186.403 40.703V22.182h5.645v18.52zm0-20.638V14.95h5.645v5.115zM213.762 40.703h-5.644V30.296q0-1.835-.706-2.646-.67-.847-1.799-.847-.6 0-1.2.247-.599.247-1.163.706-.565.423-1.023 1.023-.424.6-.67 1.305v10.619h-5.645V22.182h5.08v3.104q1.023-1.658 2.893-2.54 1.87-.917 4.304-.917 1.799 0 2.892.67 1.094.635 1.694 1.694.6 1.023.776 2.257.211 1.235.211 2.4zM229.931 40.703l-4.833-7.444-1.975 2.046v5.398h-5.645V14.95h5.645v14.922l6.244-7.69h5.997l-6.667 7.972 7.232 10.549z"/></g></g></svg>