<?xml version="1.0" encoding="UTF-8" standalone="no"?>
<!-- Created with Inkscape (http://www.inkscape.org/) -->

<svg
   xmlns:dc="http://purl.org/dc/elements/1.1/"
   xmlns:cc="http://creativecommons.org/ns#"
   xmlns:rdf="http://www.w3.org/1999/02/22-rdf-syntax-ns#"
   xmlns:svg="http://www.w3.org/2000/svg"
   xmlns="http://www.w3.org/2000/svg"
   xmlns:sodipodi="http://sodipodi.sourceforge.net/DTD/sodipodi-0.dtd"
   xmlns:inkscape="http://www.inkscape.org/namespaces/inkscape"
   width="235.92851mm"
   height="48.8517mm"
   viewBox="0 0 235.92851 48.8517"
   version="1.1"
   id="svg8"
   inkscape:version="0.92.2 (5c3e80d, 2017-08-06)"
   sodipodi:docname="easylist-logo.svg"
   inkscape:export-filename="F:\Bone\Pictures\my apps\EasyList\easylist-logo.png"
   inkscape:export-xdpi="96"
   inkscape:export-ydpi="96">
  <defs
     id="defs2" />
  <sodipodi:namedview
     id="base"
     pagecolor="#ffffff"
     bordercolor="#666666"
     borderopacity="1.0"
     inkscape:pageopacity="0"
     inkscape:pageshadow="2"
     inkscape:zoom="0.70710678"
     inkscape:cx="169.77666"
     inkscape:cy="-187.16835"
     inkscape:document-units="mm"
     inkscape:current-layer="layer1"
     showgrid="false"
     fit-margin-top="0"
     fit-margin-left="0"
     fit-margin-right="0"
     fit-margin-bottom="0"
     showguides="true"
     inkscape:guide-bbox="true"
     inkscape:snap-bbox="false"
     inkscape:snap-midpoints="false"
     inkscape:object-paths="true" />
  <metadata
     id="metadata5">
    <rdf:RDF>
      <cc:Work
         rdf:about="">
        <dc:format>image/svg+xml</dc:format>
        <dc:type
           rdf:resource="http://purl.org/dc/dcmitype/StillImage" />
        <dc:title></dc:title>
      </cc:Work>
    </rdf:RDF>
  </metadata>
  <g
     inkscape:label="Layer 1"
     inkscape:groupmode="layer"
     id="layer1"
     transform="translate(-5.6033825,-88.34488)">
    <g
       aria-label="Easy List . link"
       style="font-style:normal;font-variant:normal;font-weight:normal;font-stretch:normal;font-size:10.58333302px;line-height:1.25;font-family:'Arial Rounded MT Bold';-inkscape-font-specification:'Arial Rounded MT Bold, Normal';font-variant-ligatures:normal;font-variant-caps:normal;font-variant-numeric:normal;text-align:start;letter-spacing:0px;word-spacing:0px;writing-mode:lr-tb;text-anchor:start;fill:#000000;fill-opacity:1;stroke:none;stroke-width:0.26458332"
       id="text4506"
       inkscape:label="text4506"
       transform="translate(0,52.916669)">
      <rect
         style="opacity:1;fill:#ffffff;fill-opacity:1;fill-rule:nonzero;stroke:#000000;stroke-width:2.12236643;stroke-linecap:round;stroke-linejoin:round;stroke-miterlimit:4;stroke-dasharray:none;stroke-dashoffset:0;stroke-opacity:1"
         id="rect908"
         width="27.325468"
         height="27.325468"
         x="63.948738"
         y="47.653366" />
    </g>
    <g
       aria-label="EasyList.link"
       style="font-style:normal;font-variant:normal;font-weight:normal;font-stretch:normal;font-size:50.79999924px;line-height:1.25;font-family:'Raleway ExtraBold';-inkscape-font-specification:'Raleway ExtraBold, ';font-variant-ligatures:normal;font-variant-caps:normal;font-variant-numeric:normal;text-align:start;letter-spacing:0px;word-spacing:0px;writing-mode:lr-tb;text-anchor:start;fill:#000000;fill-opacity:1;stroke:none;stroke-width:0.26458332"
       id="text837"
       transform="translate(0,52.916669)">
      <path
         d="M 23.206994,71.050745 V 76.130745 H 5.6033825 V 51.083522 H 22.889494 V 56.163522 H 11.388938 V 61.031856 H 21.266716 V 65.7238 H 11.388938 V 71.050745 Z"
         style="font-size:35.27777863px;stroke-width:0.26458332"
         id="path866"
         inkscape:connector-curvature="0" />
      <path
         d="M 31.209537,76.483523 Q 29.833703,76.483523 28.634259,76.060189 27.470092,75.601578 26.623425,74.825467 25.776759,74.014078 25.28287,72.955745 24.788981,71.862134 24.788981,70.592134 24.788981,69.2163 25.353425,68.087411 25.953148,66.958522 27.011481,66.147134 28.069814,65.335745 29.516203,64.877134 30.962592,64.418522 32.726481,64.418522 33.890648,64.418522 34.984259,64.630189 36.07787,64.806578 36.889259,65.194634 V 64.347967 Q 36.889259,61.137689 33.185092,61.137689 31.668148,61.137689 30.292314,61.666856 28.916481,62.160745 27.399537,63.1838 L 25.741481,59.656022 Q 27.575925,58.456578 29.551481,57.856856 31.527037,57.257133 33.749537,57.257133 37.947592,57.257133 40.240648,59.232689 42.533704,61.208245 42.533704,65.018245 V 69.780745 Q 42.533704,70.627411 42.780648,70.980189 43.06287,71.297689 43.733148,71.368245 V 76.130745 Q 42.992315,76.307134 42.392592,76.342412 41.79287,76.412967 41.298981,76.412967 39.711481,76.412967 38.900092,75.813245 38.088704,75.178245 37.877037,74.049356 L 37.771203,73.202689 Q 36.536481,74.790189 34.80787,75.636856 33.114537,76.483523 31.209537,76.483523 Z M 32.867592,72.426578 Q 33.784815,72.426578 34.631481,72.109078 35.513426,71.791578 36.07787,71.262411 36.889259,70.627411 36.889259,69.921856 V 68.157967 Q 36.148426,67.875745 35.266481,67.734634 34.419815,67.558245 33.678981,67.558245 32.126759,67.558245 31.103703,68.2638 30.115926,68.969356 30.115926,70.098245 30.115926,71.1213 30.892037,71.791578 31.668148,72.426578 32.867592,72.426578 Z"
         style="font-size:35.27777863px;stroke-width:0.26458332"
         id="path868"
         inkscape:connector-curvature="0" />
      <path
         d="M 53.926222,76.483523 Q 51.562611,76.483523 49.269555,75.742689 46.9765,74.966578 45.389,73.520189 L 47.399833,70.062967 Q 49.093166,71.227134 50.680666,71.862134 52.303444,72.497134 53.785111,72.497134 54.878722,72.497134 55.478444,72.109078 56.078167,71.721023 56.078167,70.980189 56.078167,70.239356 55.302055,69.816023 54.561222,69.357411 52.656222,68.863523 50.7865,68.334356 49.481222,67.840467 48.211222,67.346578 47.399833,66.746856 46.588444,66.147134 46.235666,65.371022 45.882888,64.594911 45.882888,63.536578 45.882888,62.125467 46.447333,60.9613 47.011777,59.797133 47.999555,58.985745 48.987333,58.174356 50.327889,57.715744 51.703722,57.257133 53.291222,57.257133 55.372611,57.257133 57.171778,57.821578 59.006222,58.386022 60.699556,59.867689 L 58.512333,63.254356 Q 56.924833,62.160745 55.690111,61.666856 54.455389,61.172967 53.291222,61.172967 52.374,61.172967 51.739,61.561022 51.104,61.9138 51.104,62.725189 51.104,63.5013 51.774278,63.889356 52.479833,64.277411 54.349555,64.736022 56.325111,65.265189 57.665667,65.794356 59.0415,66.323522 59.888167,66.9938 60.734833,67.6288 61.122889,68.475467 61.510944,69.322134 61.510944,70.4863 61.510944,73.237967 59.464833,74.860745 57.418722,76.483523 53.926222,76.483523 Z"
         style="font-size:35.27777863px;stroke-width:0.26458332"
         id="path870"
         inkscape:connector-curvature="0" />
      <path
         d="M 70.340307,78.917689 C 70.810678,79.082319 71.24577,79.199912 71.645585,79.270467 72.068918,79.341023 72.445215,79.376301 72.774474,79.376301 73.456511,79.376301 73.985677,79.141116 74.361974,78.670745 74.73827,78.200374 75.079288,77.353708 75.385029,76.130745 L 68.329474,57.609911 H 74.150307 L 78.454196,71.297689 92.822402,35.439904 97.763255,35.428211 80.394474,79.129356 C 79.900585,80.65806 79.018641,81.892782 77.748641,82.833523 76.478641,83.797782 74.973456,84.279912 73.233085,84.279912 72.762714,84.279912 72.280585,84.232875 71.786696,84.138801 71.316325,84.068245 70.834196,83.938893 70.340307,83.750745 Z"
         style="font-size:35.27777863px;fill:#26d926;fill-opacity:1;stroke-width:0.26458332"
         id="path872"
         inkscape:connector-curvature="0"
         sodipodi:nodetypes="ccssccccccccsccc" />
      <path
         d="M 104.44458,76.130745 V 51.083522 H 110.23017 V 71.050745 H 122.36573 V 76.130745 Z"
         style="font-size:35.27777863px;stroke-width:0.26458332"
         id="path874"
         inkscape:connector-curvature="0" />
      <path
         d="M 124.65659,76.130745 V 57.609911 H 130.30103 V 76.130745 Z M 124.65659,55.493244 V 50.377967 H 130.30103 V 55.493244 Z"
         style="font-size:35.27777863px;stroke-width:0.26458332"
         id="path876"
         inkscape:connector-curvature="0" />
      <path
         d="M 141.46755,76.483523 Q 139.10394,76.483523 136.81088,75.742689 134.51782,74.966578 132.93032,73.520189 L 134.94116,70.062967 Q 136.63449,71.227134 138.22199,71.862134 139.84477,72.497134 141.32644,72.497134 142.42005,72.497134 143.01977,72.109078 143.61949,71.721023 143.61949,70.980189 143.61949,70.239356 142.84338,69.816023 142.10255,69.357411 140.19755,68.863523 138.32782,68.334356 137.02255,67.840467 135.75255,67.346578 134.94116,66.746856 134.12977,66.147134 133.77699,65.371022 133.42421,64.594911 133.42421,63.536578 133.42421,62.125467 133.98866,60.9613 134.5531,59.797133 135.54088,58.985745 136.52866,58.174356 137.86921,57.715744 139.24505,57.257133 140.83255,57.257133 142.91394,57.257133 144.7131,57.821578 146.54755,58.386022 148.24088,59.867689 L 146.05366,63.254356 Q 144.46616,62.160745 143.23144,61.666856 141.99671,61.172967 140.83255,61.172967 139.91532,61.172967 139.28032,61.561022 138.64532,61.9138 138.64532,62.725189 138.64532,63.5013 139.3156,63.889356 140.02116,64.277411 141.89088,64.736022 143.86644,65.265189 145.20699,65.794356 146.58283,66.323522 147.42949,66.9938 148.27616,67.6288 148.66421,68.475467 149.05227,69.322134 149.05227,70.4863 149.05227,73.237967 147.00616,74.860745 144.96005,76.483523 141.46755,76.483523 Z"
         style="font-size:35.27777863px;stroke-width:0.26458332"
         id="path878"
         inkscape:connector-curvature="0" />
      <path
         d="M 163.72948,75.142967 Q 162.56532,75.636856 161.04837,76.060189 159.56671,76.483523 158.04976,76.483523 156.99143,76.483523 156.03893,76.2013 155.12171,75.954356 154.41615,75.389912 153.71059,74.790189 153.28726,73.837689 152.89921,72.885189 152.89921,71.544634 V 61.878522 H 150.53559 V 57.609911 H 152.89921 V 51.718522 H 158.54365 V 57.609911 H 162.31837 V 61.878522 H 158.54365 V 69.604356 Q 158.54365,70.521578 159.00226,70.944911 159.46087,71.332967 160.16643,71.332967 160.80143,71.332967 161.47171,71.1213 162.14198,70.909634 162.63587,70.662689 Z"
         style="font-size:35.27777863px;stroke-width:0.26458332"
         id="path880"
         inkscape:connector-curvature="0" />
      <path
         d="M 169.06857,76.130745 V 70.380467 H 173.68996 V 76.130745 Z"
         style="font-size:35.27777863px;stroke-width:0.26458332"
         id="path882"
         inkscape:connector-curvature="0" />
      <path
         d="M 180.08518,50.377967 H 185.72962 V 69.5338 Q 185.72962,71.650467 187.52879,71.650467 187.95212,71.650467 188.44601,71.544634 188.97518,71.403523 189.39851,71.156578 L 190.13934,75.389912 Q 189.08101,75.8838 187.70518,76.166023 186.32934,76.448245 185.1299,76.448245 182.69573,76.448245 181.39045,75.178245 180.08518,73.908245 180.08518,71.509356 Z"
         style="font-size:35.27777863px;stroke-width:0.26458332"
         id="path884"
         inkscape:connector-curvature="0" />
      <path
         d="M 192.00687,76.130745 V 57.609911 H 197.65131 V 76.130745 Z M 192.00687,55.493244 V 50.377967 H 197.65131 V 55.493244 Z"
         style="font-size:35.27777863px;stroke-width:0.26458332"
         id="path886"
         inkscape:connector-curvature="0" />
      <path
         d="M 219.36588,76.130745 H 213.72143 V 65.7238 Q 213.72143,63.889356 213.01588,63.077967 212.3456,62.2313 211.21671,62.2313 210.61699,62.2313 210.01727,62.478245 209.41754,62.725189 208.8531,63.1838 208.28865,63.607134 207.83004,64.206856 207.40671,64.806578 207.15977,65.512134 V 76.130745 H 201.51532 V 57.609911 H 206.59532 V 60.714356 Q 207.61838,59.0563 209.4881,58.174356 211.35782,57.257133 213.79199,57.257133 215.59115,57.257133 216.68477,57.927411 217.77838,58.562411 218.3781,59.620745 218.97782,60.6438 219.15421,61.878522 219.36588,63.113245 219.36588,64.277411 Z"
         style="font-size:35.27777863px;stroke-width:0.26458332"
         id="path888"
         inkscape:connector-curvature="0" />
      <path
         d="M 235.53468,76.130745 230.70162,68.687134 228.72606,70.733245 V 76.130745 H 223.08162 V 50.377967 H 228.72606 V 65.300467 L 234.97023,57.609911 H 240.96745 L 234.29995,65.582689 241.5319,76.130745 Z"
         style="font-size:35.27777863px;stroke-width:0.26458332"
         id="path890"
         inkscape:connector-curvature="0" />
    </g>
  </g>
</svg>
