<svg xmlns="http://www.w3.org/2000/svg" viewBox="0 0 47.999998 47.999998" width="48" height="48"><path d="M39.157 8.844c-3.125-3.125-8.21-3.126-11.335-.002l-4.944 4.946 2.282 2.282 4.946-4.946c1.867-1.865 4.902-1.864 6.768.002 1.866 1.866 1.866 4.903 0 6.77l-7.42 7.42a4.754 4.754 0 0 1-3.385 1.403 4.755 4.755 0 0 1-3.386-1.404L20.402 27.6c1.513 1.512 3.526 2.346 5.667 2.346 2.14 0 4.153-.834 5.666-2.347l7.42-7.422c3.125-3.125 3.125-8.21 0-11.334z"/><path d="M17.896 36.875c-1.867 1.866-4.904 1.865-6.77 0-1.866-1.868-1.866-4.905 0-6.772l7.42-7.42c1.866-1.866 4.903-1.866 6.77 0l2.282-2.282c-3.125-3.124-8.21-3.124-11.335 0l-7.42 7.42c-3.124 3.126-3.124 8.21 0 11.336C10.406 40.72 12.46 41.5 14.51 41.5c2.053 0 4.106-.78 5.668-2.342l4.946-4.948-2.283-2.282z"/></svg>