<svg width="49" height="48" fill="none" xmlns="http://www.w3.org/2000/svg"><path fill="#F3FEA8" d="M.2 0h48v48H.2z"/><path d="M24.758 4.465c-3.125 0-5.023 1.674-5.023 2.79v5.582c0 .558-1.675.558-1.675 3.907h13.396c0-3.349-1.675-3.349-1.675-3.907V7.256c0-1.675-1.897-2.791-5.023-2.791z" stroke="#000" stroke-width="2"/><path d="M26.99 17.86a2.232 2.232 0 1 1-4.464 0 2.232 2.232 0 0 1 4.465 0z" fill="#000"/><path d="M8.572 23.442l16.186 8.93 15.628-9.488" stroke="#000" stroke-width="3"/><path stroke="#000" stroke-width="3" d="M7.281 22.709h33.837v19.326H7.281z"/></svg>