<svg xmlns="http://www.w3.org/2000/svg" width="48" height="48" fill="none"><path d="M0 0h48v48H0z" fill="none"/><path d="M24.558 4.465c-3.125 0-5.023 1.674-5.023 2.79v5.582c0 .558-1.675.558-1.675 3.907h13.396c0-3.35-1.675-3.35-1.675-3.907v-5.58c0-1.676-1.895-2.792-5.02-2.792z" stroke="#000" stroke-width="2"/><path d="M26.79 17.86a2.232 2.232 0 1 1-4.464 0 2.232 2.232 0 0 1 4.465 0z" fill="#000"/><path d="M8.372 23.442l16.186 8.93 15.628-9.488" stroke="#000" stroke-width="3"/><path d="M7.08 22.71h33.84v19.325H7.08z" stroke="#000" stroke-width="3"/></svg>