<svg width="49" height="48" fill="none" xmlns="http://www.w3.org/2000/svg"><path stroke="#000" stroke-width="3" d="M17.144 8.547h25.675M17.144 19.709h25.675M17.144 30.872h25.675M17.144 42.035h25.675"/><path d="M8.41 10.232h-.704v-4.48a3.61 3.61 0 0 1-.668.484c-.273.162-.519.283-.738.364v-.68a4.246 4.246 0 0 0 1.031-.672c.295-.263.503-.518.625-.766h.454v5.75zM9.456 20.72v.675H5.671c-.005-.169.022-.332.082-.488.097-.258.25-.512.461-.762.214-.25.521-.539.922-.867.623-.51 1.043-.914 1.262-1.21.219-.3.328-.583.328-.849a.93.93 0 0 0-.3-.703c-.199-.192-.458-.289-.778-.289-.339 0-.61.102-.813.305-.203.203-.306.484-.308.844l-.723-.074c.05-.54.236-.95.559-1.23.323-.285.756-.427 1.3-.427.55 0 .985.153 1.305.457.32.305.48.683.48 1.133 0 .23-.046.455-.14.676-.094.221-.25.454-.469.7-.216.244-.577.58-1.082 1.007-.422.354-.692.595-.812.723-.12.125-.219.25-.297.378h2.808zM5.765 31.046l.703-.093c.08.398.218.686.41.863.196.174.433.262.711.262.331 0 .61-.115.836-.344.23-.23.344-.513.344-.852 0-.323-.105-.588-.316-.797a1.09 1.09 0 0 0-.805-.316c-.133 0-.298.026-.496.078l.078-.617a1.447 1.447 0 0 0 .922-.227c.24-.156.36-.397.36-.722a.855.855 0 0 0-.263-.64.93.93 0 0 0-.675-.255.958.958 0 0 0-.684.258c-.182.172-.3.43-.351.774l-.704-.125c.086-.472.282-.837.586-1.094.305-.26.684-.39 1.137-.39.313 0 .6.067.863.202.263.133.464.315.602.547.14.232.21.478.21.738 0 .248-.066.473-.198.676a1.36 1.36 0 0 1-.59.484c.338.079.601.241.789.489.187.245.281.552.281.922 0 .5-.182.924-.547 1.273-.364.346-.825.52-1.383.52-.502 0-.92-.15-1.254-.45-.33-.299-.52-.687-.566-1.164zM8.015 43.721V42.35H5.531v-.645l2.613-3.71h.574v3.71h.774v.645h-.774v1.371h-.703zm0-2.016v-2.582l-1.793 2.582h1.793z" fill="#000"/></svg>