<svg xmlns="http://www.w3.org/2000/svg" width="48" height="48" fill="none"><path d="M16.97 8.445h25.674M16.97 19.608h25.674M16.97 30.77h25.674M16.97 41.934h25.674" stroke="#000" stroke-width="3"/><path d="M8.235 10.13H7.53V5.65a3.61 3.61 0 0 1-.667.484c-.273.162-.52.284-.738.364v-.68a4.246 4.246 0 0 0 1.03-.67c.296-.264.504-.52.626-.768h.455zM9.28 20.62v.674H5.497c-.005-.17.022-.332.082-.49.097-.256.25-.51.46-.76.215-.25.522-.54.923-.867.624-.51 1.044-.915 1.263-1.21.22-.3.328-.583.328-.85a.93.93 0 0 0-.3-.703c-.198-.192-.457-.29-.777-.29-.34.002-.61.104-.813.306-.203.204-.306.485-.308.845L5.63 17.2c.05-.54.235-.95.558-1.23.323-.285.756-.427 1.3-.427.55 0 .985.154 1.305.457.32.305.48.683.48 1.134 0 .23-.046.454-.14.675-.094.22-.25.454-.47.7-.215.243-.576.58-1.08 1.006-.423.355-.693.596-.813.724-.12.125-.22.25-.297.378H9.28zM5.59 30.944l.703-.093c.08.398.218.686.41.863.196.174.433.262.71.262.332 0 .61-.116.837-.345.23-.23.344-.513.344-.852 0-.323-.105-.588-.316-.797a1.09 1.09 0 0 0-.805-.316c-.133 0-.298.026-.496.078l.078-.617a1.447 1.447 0 0 0 .922-.227c.24-.154.36-.395.36-.72a.855.855 0 0 0-.263-.64.93.93 0 0 0-.675-.255.958.958 0 0 0-.685.258c-.182.172-.3.43-.35.774l-.705-.125c.086-.473.282-.837.586-1.095.305-.26.684-.39 1.137-.39.313 0 .6.067.863.203.263.133.464.314.602.546.14.233.21.48.21.74 0 .246-.066.47-.198.674a1.36 1.36 0 0 1-.59.485c.338.078.6.24.79.488.186.245.28.552.28.922 0 .5-.182.924-.547 1.273-.364.347-.825.52-1.383.52-.502 0-.92-.15-1.254-.45-.33-.298-.52-.686-.566-1.163zM7.84 43.62v-1.37H5.356v-.647l2.613-3.71h.573v3.71h.774v.645h-.774v1.372zm0-2.017v-2.58l-1.793 2.58z" fill="#000"/></svg>