<svg xmlns="http://www.w3.org/2000/svg" height="64" viewBox="0 0 48 48" width="64"><path d="M30.02 26.687l6.35-6.35-8.707-8.707-6.35 6.35V9H9v23.844C9 36.238 11.762 39 15.156 39H39V26.687zm-2.357-12.57l6.22 6.22-12.57 12.572V20.465zm-8.108 6.805v3.325h-8.797v-3.325zm-8.797-1.758V15.84h8.797v3.324zm8.797-8.406v3.324h-8.797v-3.324zm-8.797 22.086v-6.84h8.797v6.84c0 2.425-1.973 4.398-4.398 4.398-2.426 0-4.4-1.973-4.4-4.398zm26.484 4.398H19.46l.048-.047.002.002 8.752-8.752h8.98zm0 0"/><path d="M15.156 30.202c-1.456 0-2.64 1.185-2.64 2.642 0 1.456 1.184 2.64 2.64 2.64 1.457 0 2.642-1.184 2.642-2.64 0-1.457-1.185-2.642-2.642-2.642zm0 3.525c-.486 0-.883-.397-.883-.883 0-.488.397-.884.883-.884.488 0 .884.396.884.884 0 .486-.396.883-.884.883zm0 0"/></svg>