<svg width="360" height="624" fill="none" xmlns="http://www.w3.org/2000/svg"><g clip-path="url(#clip0)"><path fill="#fff" d="M0 0h360v624H0z"/><path stroke="#EF4545" d="M41.5 0v640"/><path stroke="#3F88C5" d="M0 25.5h360M0 51.5h360M0 77.5h360M0 103.5h360M0 129.5h360M0 155.5h360M0 181.5h360M0 207.5h360M0 233.5h360M0 259.5h360M0 285.5h360M0 311.5h360M0 337.5h360M0 363.5h360M0 389.5h360M0 415.5h360M0 441.5h360M0 467.5h360M0 493.5h360M0 519.5h360M0 545.5h360M0 571.5h360M0 597.5h360M0 623.5h360"/><circle cx="20" cy="79" r="8" fill="#7E7E7E" filter="url(#filter0_i)"/><circle cx="20" cy="390" r="8" fill="#7E7E7E" filter="url(#filter1_i)"/></g><defs><filter id="filter0_i" x="8" y="71" width="20" height="16" filterUnits="userSpaceOnUse" color-interpolation-filters="sRGB"><feFlood flood-opacity="0" result="BackgroundImageFix"/><feBlend in="SourceGraphic" in2="BackgroundImageFix" result="shape"/><feColorMatrix in="SourceAlpha" values="0 0 0 0 0 0 0 0 0 0 0 0 0 0 0 0 0 0 127 0" result="hardAlpha"/><feOffset dx="-4"/><feGaussianBlur stdDeviation="2"/><feComposite in2="hardAlpha" operator="arithmetic" k2="-1" k3="1"/><feColorMatrix values="0 0 0 0 0 0 0 0 0 0 0 0 0 0 0 0 0 0 0.75 0"/><feBlend in2="shape" result="effect1_innerShadow"/></filter><filter id="filter1_i" x="8" y="382" width="20" height="16" filterUnits="userSpaceOnUse" color-interpolation-filters="sRGB"><feFlood flood-opacity="0" result="BackgroundImageFix"/><feBlend in="SourceGraphic" in2="BackgroundImageFix" result="shape"/><feColorMatrix in="SourceAlpha" values="0 0 0 0 0 0 0 0 0 0 0 0 0 0 0 0 0 0 127 0" result="hardAlpha"/><feOffset dx="-4"/><feGaussianBlur stdDeviation="2"/><feComposite in2="hardAlpha" operator="arithmetic" k2="-1" k3="1"/><feColorMatrix values="0 0 0 0 0 0 0 0 0 0 0 0 0 0 0 0 0 0 0.75 0"/><feBlend in2="shape" result="effect1_innerShadow"/></filter><clipPath id="clip0"><path fill="#fff" d="M0 0h360v624H0z"/></clipPath></defs></svg>