<svg width="49" height="48" fill="none" xmlns="http://www.w3.org/2000/svg"><path d="M24.774 30.458c.85 0 1.56-.173 2.132-.52a4.04 4.04 0 0 0 1.404-1.352 5.255 5.255 0 0 0 .754-1.898c.156-.728.234-1.473.234-2.236V15.04h3.562v9.412c0 1.265-.156 2.453-.468 3.562-.295 1.11-.771 2.08-1.43 2.912-.641.832-1.473 1.49-2.496 1.976-1.023.485-2.245.728-3.666.728-1.473 0-2.73-.251-3.77-.754-1.023-.52-1.855-1.196-2.496-2.028-.641-.85-1.11-1.829-1.404-2.938a14.207 14.207 0 0 1-.416-3.458V15.04h3.588v9.412c0 .78.07 1.534.208 2.262.156.71.407 1.343.754 1.898a4.361 4.361 0 0 0 1.404 1.352c.572.33 1.274.494 2.106.494zM15.05 36.1h19.5v1.3h-19.5v-1.3z" fill="#000"/></svg>