<svg xmlns="http://www.w3.org/2000/svg" width="48" height="48" fill="none"><path d="M23.974 28.238c.85 0 1.56-.173 2.132-.52a4.04 4.04 0 0 0 1.404-1.352 5.255 5.255 0 0 0 .754-1.898c.156-.728.234-1.473.234-2.236V12.82h3.562v9.412c0 1.265-.156 2.453-.468 3.562-.295 1.11-.77 2.08-1.43 2.912-.64.832-1.473 1.49-2.496 1.976-1.023.485-2.245.728-3.666.728-1.473 0-2.73-.25-3.77-.754-1.023-.52-1.855-1.196-2.496-2.028-.64-.85-1.11-1.83-1.404-2.938a14.207 14.207 0 0 1-.416-3.458V12.82h3.588v9.412c0 .78.07 1.534.208 2.262.156.71.407 1.343.754 1.898a4.36 4.36 0 0 0 1.404 1.352c.572.33 1.274.494 2.106.494zM14.25 33.88h19.5v1.3h-19.5z" fill="#000"/></svg>